<svg xmlns="http://www.w3.org/2000/svg" viewBox="0 0 1440 320"><path fill="#010159" fill-opacity="1" d="M0,192L24,192C48,192,96,192,144,170.7C192,149,240,107,288,101.3C336,96,384,128,432,138.7C480,149,528,139,576,149.3C624,160,672,192,720,197.3C768,203,816,181,864,197.3C912,213,960,267,1008,256C1056,245,1104,171,1152,122.7C1200,75,1248,53,1296,74.7C1344,96,1392,160,1416,192L1440,224L1440,0L1416,0C1392,0,1344,0,1296,0C1248,0,1200,0,1152,0C1104,0,1056,0,1008,0C960,0,912,0,864,0C816,0,768,0,720,0C672,0,624,0,576,0C528,0,480,0,432,0C384,0,336,0,288,0C240,0,192,0,144,0C96,0,48,0,24,0L0,0Z"></path></svg>